<?xml version="1.0" encoding="utf-8"?>
<svg xmlns="http://www.w3.org/2000/svg" xmlns:xlink="http://www.w3.org/1999/xlink"  x="-1.8881" y="0" width="205.6234mm" height="246.9757mm" viewBox = " -1.8881 0 205.6234 246.9757"  style="enable-background:new -1.8881 0 205.6234 246.9757; " preserveAspectRatio="xMinYMin meet"  xml:space="preserve" >
<g id="Default">
<path id ="ca4d2994-cd9e-4003-80f2-75ce24cca4d1" d = " M 13.5326 10.6998  C -4.9333 24.498 -4.9333 52.0942 7.3164 75.5215  C 19.566 98.9488 44.0653 118.2072 65.8544 118.4899  C 87.6434 118.7725 106.7222 100.0795 112.9384 76.6522  C 119.1545 53.2249 112.5082 25.0633 90.7191 10.9825  C 68.9301 -3.0983 31.9984 -3.0983 13.5326 10.6998 "  class="cls-1265919216" >  </path>
<path id ="07c8e752-4597-4bab-9858-74e5db81d7cc" d = " M 163.4938 250.8203  C 190.7215 250.8203 204.3354 237.6187 204.3354 211.2154  C 204.3354 184.8121 190.7215 184.8121 163.4938 211.2154  C 136.2661 237.6187 136.2661 250.8203 163.4938 250.8203 "  class="cls-1265919216" >  </path>
<path id ="1bb2d0d3-6a8b-45b1-b158-ae716a230d3b" d = " M 68.936 242.799  C 79.9935 234.7778 70.7026 218.7352 54.9997 210.2978  C 39.2967 201.8604 17.1817 201.0282 6.1242 209.0495  C -4.9333 217.0708 -4.9333 233.9456 10.7697 242.3829  C 26.4726 250.8203 57.8785 250.8203 68.936 242.799 "  class="cls-1265919216" >  </path>
<path id ="208b72d8-702b-4159-acb9-0579f9b7c09a" d = " M 189.4678 15.895  C 174.6002 -3.0983 144.865 -3.0983 133.2512 10.6886  C 121.6374 24.4755 128.1451 52.0492 143.0127 71.0425  C 157.8803 90.0357 181.1078 100.4485 192.7216 86.6616  C 204.3354 72.8747 204.3354 34.8882 189.4678 15.895 "  class="cls-1265919216" >  </path>
<path id ="43d5eb92-f007-4ca5-896e-4117d043caa2" d = " M 123.8039 235.5245  C 141.2418 220.2288 172.7886 189.6372 188.562 167.9582  C 204.3354 146.2792 204.3354 133.5127 192.2354 121.7052  C 180.1354 109.8976 155.9354 99.0489 134.0858 103.177  C 112.2363 107.305 92.7373 126.4098 82.229 144.5854  C 71.7207 162.7609 70.203 180.0072 74.6147 197.5581  C 79.0263 215.1091 89.3672 232.9647 96.2022 241.8925  C 103.0371 250.8203 106.3661 250.8203 123.8039 235.5245 "  class="cls-1265919216" >  </path>
<path id ="b69f9826-0c91-4739-8cf6-a6e19205131c" d = " M 5.8808 174.9088  C 16.6948 191.9833 38.3228 192.7972 49.8425 185.1849  C 61.3622 177.5727 62.7735 161.5344 51.9595 144.4599  C 41.1455 127.3854 18.1061 109.2747 6.5864 116.8869  C -4.9333 124.4991 -4.9333 157.8342 5.8808 174.9088 "  class="cls-1265919216" >  </path>
</g>
<defs>
<style> .cls-1265919216{stroke:Black ; stroke-opacity:1; stroke-width:1; stroke-linecap:round; stroke-linejoin:round; fill:#000000 ; fill-opacity:1; } </style>
</defs>
</svg>