<?xml version="1.0" encoding="utf-8"?>
<svg xmlns="http://www.w3.org/2000/svg" xmlns:xlink="http://www.w3.org/1999/xlink"  x="-1.8881" y="0" width="205.6234mm" height="246.9757mm" viewBox = " -1.8881 0 205.6234 246.9757"  style="enable-background:new -1.8881 0 205.6234 246.9757; " preserveAspectRatio="xMinYMin meet"  xml:space="preserve" >
<g id="Default">
<path id ="b35c51cf-319f-4878-8d46-69710d2f1bd4" d = " M 198.871 48.8362  C 193.4066 34.5083 182.4778 40.066 169.9829 56.1318  C 157.488 72.1976 143.4271 98.7715 137.2069 115.9949  C 130.9867 133.2183 132.6073 141.0912 145.1022 142.1321  C 157.597 143.173 180.9662 137.3818 192.6508 117.3796  C 204.3354 97.3773 204.3354 63.164 198.871 48.8362 "  class="cls-1265919216" >  </path>
<path id ="741d520f-ae58-4c32-9577-386c0f4b7b75" d = " M 60.394 245.2164  C 74.039 239.6124 75.488 228.4045 62.5674 212.0529  C 49.6468 195.7013 22.3568 174.2061 8.7118 179.8101  C -4.9333 185.414 -4.9333 218.1172 7.9873 234.4688  C 20.9079 250.8203 46.749 250.8203 60.394 245.2164 "  class="cls-1265919216" >  </path>
<path id ="631124d1-232c-451a-997f-a4d5b62d36db" d = " M 4.8061 95.4741  C 14.5455 105.6685 34.0242 88.1623 44.0298 76.5583  C 54.0353 64.9543 54.5678 59.2524 44.8284 49.0579  C 35.0891 38.8635 15.0779 24.1765 5.0723 35.7805  C -4.9333 47.3846 -4.9333 85.2796 4.8061 95.4741 "  class="cls-1265919216" >  </path>
<path id ="4d8f493e-43d1-48c6-8025-4f25b85f727b" d = " M 183.8937 246.6261  C 204.3354 242.4319 204.3354 234.0435 190.3348 223.6206  C 176.3342 213.1977 148.333 200.7403 128.6083 199.388  C 108.8837 198.0357 97.4356 207.7885 90.9946 218.2114  C 84.5535 228.6343 83.1194 239.7273 102.8441 245.2738  C 122.5687 250.8203 163.452 250.8203 183.8937 246.6261 "  class="cls-1265919216" >  </path>
<path id ="9894c9a2-398d-4fb4-a791-21c2c650f85e" d = " M 185.6076 0.5566  C 166.8799 -3.0983 129.4244 -3.0983 110.6733 1.3527  C 91.9222 5.8037 91.8754 14.7056 104.4716 21.4786  C 117.0679 28.2516 142.3071 32.8956 161.0583 32.0995  C 179.8094 31.3034 192.0724 25.0673 198.2039 18.2943  C 204.3354 11.5213 204.3354 4.2115 185.6076 0.5566 "  class="cls-1265919216" >  </path>
<path id ="6add2a85-2978-4300-818a-eef020cc182f" d = " M 57.9621 96.222  C 37.0498 97.5709 16.0583 116.4367 5.5625 126.8572  C -4.9333 137.2778 -4.9333 139.2532 9.4932 151.6041  C 23.9198 163.9549 52.7728 186.6812 72.8922 193.1944  C 93.0117 199.7076 104.3976 190.0078 111.8049 180.7849  C 119.2122 171.562 122.6409 162.816 123.4337 153.9663  C 124.2265 145.1165 122.3835 136.1629 111.0455 123.6021  C 99.7075 111.0412 78.8744 94.8732 57.9621 96.222 "  class="cls-1265919216" >  </path>
<path id ="3cf299df-7cd2-41bd-8311-d48497764566" d = " M 96.6729 37.9952  C 80.4699 39.3385 72.3109 46.4865 67.9644 52.9191  C 63.6179 59.3517 63.0841 65.069 72.9165 75.7656  C 82.7489 86.4621 102.9476 102.1379 119.4175 97.936  C 135.8874 93.734 148.6286 69.6544 142.8757 55.3839  C 137.1229 41.1133 112.8759 36.6519 96.6729 37.9952 "  class="cls-1265919216" >  </path>
<path id ="938e1711-9924-4674-ae89-f1e3d6b597e3" d = " M 192.6303 156.2675  C 180.9251 146.685 157.5149 152.4864 144.3494 159.1123  C 131.1838 165.7383 128.263 173.1888 139.9681 182.7712  C 151.6732 192.3537 178.0043 204.0681 191.1698 197.4422  C 204.3354 190.8163 204.3354 165.85 192.6303 156.2675 "  class="cls-1265919216" >  </path>
<path id ="5a46568f-4cc9-4b7f-9f04-6b59efffed6d" d = " M 9.7137 -2.8651  C -4.9333 -2.632 -4.9333 -2.1657 5.8188 5.9588  C 16.5708 14.0832 38.0748 29.8659 52.6969 34.3667  C 67.319 38.8676 75.0592 32.0866 78.9541 23.9621  C 82.8491 15.8377 82.8989 6.3697 68.2768 1.6357  C 53.6547 -3.0983 24.3607 -3.0983 9.7137 -2.8651 "  class="cls-1265919216" >  </path>
</g>
<defs>
<style> .cls-1265919216{stroke:Black ; stroke-opacity:1; stroke-width:1; stroke-linecap:round; stroke-linejoin:round; fill:#000000 ; fill-opacity:1; } </style>
</defs>
</svg>