<?xml version="1.0" encoding="utf-8"?>
<svg xmlns="http://www.w3.org/2000/svg" xmlns:xlink="http://www.w3.org/1999/xlink"  x="-1.8881" y="0" width="205.6234mm" height="246.9757mm" viewBox = " -1.8881 0 205.6234 246.9757"  style="enable-background:new -1.8881 0 205.6234 246.9757; " preserveAspectRatio="xMinYMin meet"  xml:space="preserve" >
<g id="Default">
<path id ="9f6a2fe2-76a9-491c-bb28-ff958dae7f02" d = " M 198.1762 41.7449  C 192.017 29.2734 179.6986 28.5786 169.8948 35.1857  C 160.0911 41.7928 152.802 55.7019 158.9612 68.1734  C 165.1204 80.6448 184.7279 91.6787 194.5316 85.0716  C 204.3354 78.4645 204.3354 54.2164 198.1762 41.7449 "  class="cls-388362514" >  </path>
<path id ="96faa654-c18b-4e47-8d78-36657850f15a" d = " M 62.8502 245.057  C 77.0554 239.2937 78.6766 227.767 68.8508 215.667  C 59.0249 203.5669 37.752 190.8934 23.5468 185.1907  C 9.3416 179.488 2.2042 180.756 -1.3645 192.8561  C -4.9333 204.9562 -4.9333 227.8882 8.4613 239.3543  C 21.8559 250.8203 48.645 250.8203 62.8502 245.057 "  class="cls-388362514" >  </path>
<path id ="b2489565-0d72-4ae4-ac30-99b7b8d8e6ee" d = " M 6.8257 7.5307  C -4.9333 18.1598 -4.9333 39.4179 4.4854 53.6401  C 13.904 67.8624 32.7413 75.0488 46.4858 77.1617  C 60.2302 79.2746 68.8817 76.314 71.2221 62.0917  C 73.5624 47.8695 69.5916 22.3856 55.8471 9.6436  C 42.1027 -3.0983 18.5847 -3.0983 6.8257 7.5307 "  class="cls-388362514" >  </path>
<path id ="54cef16d-b93b-4d0b-a2f2-ecc59c410115" d = " M 204.3354 201.3229  C 204.3354 168.7621 193.5244 158.5227 171.9025 170.6048  C 150.2806 182.6869 150.2806 198.9674 171.9025 219.4461  C 193.5244 239.9248 204.3354 233.8837 204.3354 201.3229 "  class="cls-388362514" >  </path>
<path id ="c915e1b2-5dd5-4e7c-879b-aeb045bececb" d = " M 80.8841 83.8066  C 73.3332 84.3244 64.1292 87.4741 54.1977 102.5407  C 44.2663 117.6073 33.6073 144.5909 38.6195 164.2438  C 43.6318 183.8967 64.3152 196.219 80.3571 198.4341  C 96.3991 200.6491 107.7995 192.757 110.3381 172.5863  C 112.8767 152.4156 106.5534 119.9663 100.443 102.6846  C 94.3325 85.4029 88.4349 83.2888 80.8841 83.8066 "  class="cls-388362514" >  </path>
<path id ="e5ede2ca-d1a7-4db7-bfff-4833e74a1814" d = " M 89.7599 9.5938  C 78.7051 22.2859 82.6604 47.6702 87.5624 61.4106  C 92.4643 75.1509 98.3129 77.2475 106.5946 76.363  C 114.8763 75.4785 125.591 71.613 134.8839 62.1705  C 144.1767 52.728 152.0478 37.7084 154.8209 25.9008  C 157.5941 14.0931 155.2694 5.4974 141.0746 1.1996  C 126.8797 -3.0983 100.8148 -3.0983 89.7599 9.5938 "  class="cls-388362514" >  </path>
<path id ="9eeeb440-2dab-450a-ab6f-f2bf8359e5b8" d = " M 163.6818 241.0323  C 171.242 231.2443 150.5732 211.6684 139.4817 201.7933  C 128.3902 191.9182 126.876 191.7441 120.1207 195.8094  C 113.3654 199.8746 101.369 208.1793 94.5659 218.0544  C 87.7627 227.9295 86.153 239.3749 103.2427 245.0976  C 120.3324 250.8203 156.1216 250.8203 163.6818 241.0323 "  class="cls-388362514" >  </path>
<path id ="c2c8b066-776b-4e4e-9f5e-e9c2b28ec6be" d = " M -1.7652 155.2111  C 1.4028 171.737 7.7389 170.6113 16.1651 156.7372  C 24.5914 142.863 35.1077 116.2405 31.9397 99.7146  C 28.7716 83.1887 11.9192 76.7595 3.493 90.6336  C -4.9333 104.5077 -4.9333 138.6852 -1.7652 155.2111 "  class="cls-388362514" >  </path>
<path id ="3758236a-b063-4ccb-8fca-6519a005ba75" d = " M 193.4585 111.7898  C 182.5816 100.8213 160.8279 88.5796 144.9941 84.2471  C 129.1603 79.9146 119.2464 83.4912 117.3983 101.2335  C 115.5503 118.9759 121.7681 150.884 125.3766 166.8955  C 128.9852 182.907 129.9845 183.0219 142.7094 176.248  C 155.4343 169.4741 179.8849 155.8114 192.1101 144.1325  C 204.3354 132.4535 204.3354 122.7582 193.4585 111.7898 "  class="cls-388362514" >  </path>
<path id ="9afbdab4-c810-4b66-bcc6-883733101876" d = " M 197.3276 0.907  C 190.3199 -3.0983 176.3044 -3.0983 170.2882 0.5677  C 164.2719 4.2337 166.2548 11.5656 173.2625 15.5709  C 180.2703 19.5763 192.3028 20.255 198.3191 16.589  C 204.3354 12.923 204.3354 4.9124 197.3276 0.907 "  class="cls-388362514" >  </path>
</g>
<defs>
<style> .cls-388362514{stroke:Black ; stroke-opacity:1; stroke-width:1; stroke-linecap:round; stroke-linejoin:round; fill:#000000 ; fill-opacity:1; } </style>
</defs>
</svg>