<?xml version="1.0" encoding="utf-8"?>
<svg xmlns="http://www.w3.org/2000/svg" xmlns:xlink="http://www.w3.org/1999/xlink"  x="-1.8881" y="0" width="205.6234mm" height="246.9757mm" viewBox = " -1.8881 0 205.6234 246.9757"  style="enable-background:new -1.8881 0 205.6234 246.9757; " preserveAspectRatio="xMinYMin meet"  xml:space="preserve" >
<g id="Default">
<path id ="fbd8b4fd-1c24-4f4e-85a8-3ec5195686c9" d = " M 46.9551 80  C 23.8826 82.8144 9.4746 92.5254 2.2707 108.1934  C -4.9333 123.8615 -4.9333 145.4866 13.3887 162.3968  C 31.7106 179.3069 68.3545 191.502 92.4799 192.9703  C 116.6053 194.4387 128.2123 185.1803 132.9629 165.4557  C 137.7135 145.7312 135.6078 115.5403 118.6863 98.4039  C 101.7648 81.2675 70.0277 77.1855 46.9551 80 "  class="cls-1265919216" >  </path>
<path id ="faab82c5-2dee-4ae3-835f-3b6760cc6865" d = " M 195.3219 7.5122  C 186.3084 -3.0983 168.2815 -3.0983 160.6546 7.696  C 153.0277 18.4903 155.8009 40.0788 164.8143 50.6893  C 173.8278 61.2999 189.0816 60.9324 196.7085 50.1381  C 204.3354 39.3438 204.3354 18.1228 195.3219 7.5122 "  class="cls-1265919216" >  </path>
<path id ="7f9f2172-62c7-43c5-ab06-d94b3f8ee6bd" d = " M 3.109 12.6445  C -4.9333 28.3873 -4.9333 59.8729 1.3911 71.3531  C 7.7155 82.8333 20.3642 74.3081 28.4064 58.5652  C 36.4487 42.8224 39.8844 19.8621 33.5601 8.3819  C 27.2357 -3.0983 11.1512 -3.0983 3.109 12.6445 "  class="cls-1265919216" >  </path>
<path id ="929bbc13-c6b4-438e-98ae-8d6e51c6757b" d = " M 189.1306 241.5611  C 204.3354 232.3018 204.3354 213.7832 194.5513 202.4506  C 184.7673 191.1179 165.1992 186.9712 149.568 189.5618  C 133.9367 192.1525 122.2423 201.4806 116.8216 212.8132  C 111.4008 224.1459 112.2537 237.4831 127.8849 244.1517  C 143.5161 250.8203 173.9258 250.8203 189.1306 241.5611 "  class="cls-1265919216" >  </path>
<path id ="402a6f71-5eaa-4267-bc13-f2a5b9895597" d = " M 196.3438 89.1896  C 188.3522 69.9728 172.369 70.3578 162.0459 72.633  C 151.7229 74.9082 147.0599 79.0736 145.7866 96.3271  C 144.5132 113.5806 146.6295 143.9223 156.9525 161.0565  C 167.2756 178.1907 185.8055 182.1174 195.0704 164.6714  C 204.3354 147.2253 204.3354 108.4065 196.3438 89.1896 "  class="cls-1265919216" >  </path>
<path id ="3dcf87bb-bf3a-446c-967c-785c1caecbd1" d = " M 85.4881 244.3618  C 103.2419 237.9033 102.4159 224.9863 84.2491 212.6194  C 66.0822 200.2524 30.5745 188.4354 12.8206 194.8939  C -4.9333 201.3524 -4.9333 226.0864 13.2336 238.4533  C 31.4005 250.8203 67.7342 250.8203 85.4881 244.3618 "  class="cls-1265919216" >  </path>
<path id ="55003239-e20c-4cfb-87cd-30f3f72174b7" d = " M 65.5408 8.1727  C 49.0677 19.4436 45.6945 41.9855 59.667 55.2705  C 73.6395 68.5555 104.9577 72.5837 122.8779 72.5779  C 140.7981 72.5721 145.3204 68.5325 146.1344 55.2475  C 146.9485 41.9625 144.0544 19.4321 127.8208 8.1669  C 111.5871 -3.0983 82.014 -3.0983 65.5408 8.1727 "  class="cls-1265919216" >  </path>
</g>
<defs>
<style> .cls-1265919216{stroke:Black ; stroke-opacity:1; stroke-width:1; stroke-linecap:round; stroke-linejoin:round; fill:#000000 ; fill-opacity:1; } </style>
</defs>
</svg>