<?xml version="1.0" encoding="utf-8"?>
<svg xmlns="http://www.w3.org/2000/svg" xmlns:xlink="http://www.w3.org/1999/xlink"  x="-1.8881" y="0" width="205.6234mm" height="246.9757mm" viewBox = " -1.8881 0 205.6234 246.9757"  style="enable-background:new -1.8881 0 205.6234 246.9757; " preserveAspectRatio="xMinYMin meet"  xml:space="preserve" >
<g id="Default">
<path id ="7e054f8d-4e57-4963-bcf5-5359a6cfde1c" d = " M 97.4112 238.9332  C 117.2338 227.0461 115.6179 203.2718 94.9874 184.5928  C 74.3569 165.9139 34.7118 152.3303 14.8893 164.2175  C -4.9333 176.1046 -4.9333 213.4625 15.6972 232.1414  C 36.3277 250.8203 77.5887 250.8203 97.4112 238.9332 "  class="cls-388362514" >  </path>
<path id ="d1f9555b-622c-49ca-b6cb-70d568812fd1" d = " M 199.3754 16.7477  C 194.4155 -3.0983 184.4957 -3.0983 176.1516 6.9727  C 167.8076 17.0437 161.0394 37.1857 163.1086 56.8721  C 165.1778 76.5584 176.0845 95.7891 184.4285 105.5641  C 192.7726 115.3391 198.554 115.6584 201.4447 95.9721  C 204.3354 76.2857 204.3354 36.5937 199.3754 16.7477 "  class="cls-388362514" >  </path>
<path id ="c09dcc5b-b5da-4f03-b681-d41f01111ba8" d = " M 5.863 14.3703  C -4.9333 31.8389 -4.9333 66.776 6.6357 72.3176  C 18.2047 77.8593 41.3426 54.0054 52.1389 36.5368  C 62.9352 19.0682 61.3899 7.985 49.8209 2.4433  C 38.2519 -3.0983 16.6593 -3.0983 5.863 14.3703 "  class="cls-388362514" >  </path>
<path id ="0623316d-ecc7-400f-85b1-1b0c15630b98" d = " M 191.5946 229.8522  C 204.3354 208.8841 204.3354 166.9479 201.2543 145.8096  C 198.1732 124.6713 192.0111 124.331 178.4471 133.187  C 164.8831 142.043 143.9172 160.0953 134.2575 181.2336  C 124.5978 202.3718 126.2442 226.5961 139.8082 238.7082  C 153.3722 250.8203 178.8538 250.8203 191.5946 229.8522 "  class="cls-388362514" >  </path>
<path id ="e41cdc5b-ec18-489d-aed1-9dba4814d6fe" d = " M 70.5802 53.9493  C 45.3756 62.8029 20.2212 88.7357 7.644 104.126  C -4.9333 119.5163 -4.9333 124.364 15.4414 133.7689  C 35.8161 143.1737 76.5655 157.1356 107.1429 155.3317  C 137.7204 153.5277 158.126 135.9579 162.9559 117.6995  C 167.7858 99.4411 157.04 80.4941 139.0398 66.9078  C 121.0395 53.3215 95.7848 45.0958 70.5802 53.9493 "  class="cls-388362514" >  </path>
<path id ="83b9c4ee-dbd1-486e-a043-4fc2a7f15f1e" d = " M 85.6995 2.134  C 70.4111 7.3662 71.8701 17.8307 84.7952 27.0351  C 97.7203 36.2396 122.1114 44.184 137.3998 38.9517  C 152.6883 33.7195 158.8741 15.3106 145.949 6.1061  C 133.024 -3.0983 100.988 -3.0983 85.6995 2.134 "  class="cls-388362514" >  </path>
</g>
<defs>
<style> .cls-388362514{stroke:#5f3838 ; stroke-opacity:1; stroke-width:1; stroke-linecap:round; stroke-linejoin:round; fill:#000000 ; fill-opacity:1; } </style>
</defs>
</svg>