<?xml version="1.0" encoding="utf-8"?>
<svg xmlns="http://www.w3.org/2000/svg" xmlns:xlink="http://www.w3.org/1999/xlink"  x="-1.8881" y="0" width="205.6234mm" height="246.9757mm" viewBox = " -1.8881 0 205.6234 246.9757"  style="enable-background:new -1.8881 0 205.6234 246.9757; " preserveAspectRatio="xMinYMin meet"  xml:space="preserve" >
<g id="Default">
<path id ="f3ae6b2a-17ed-41f9-b472-cc4f4cdd2ec4" d = " M 18.1559 10.458  C -4.9333 24.0142 -4.9333 51.1267 16.0134 65.1872  C 36.9602 79.2476 78.8536 80.256 102.2757 77.626  C 125.6978 74.9959 130.6486 68.7275 132.791 54.667  C 134.9334 40.6066 134.2675 18.7541 110.8454 7.8279  C 87.4233 -3.0983 41.245 -3.0983 18.1559 10.458 "  class="cls-1265919216" >  </path>
<path id ="c58d7ed8-9ef7-4350-badd-fa455bc3bd21" d = " M 194.587 240.3766  C 204.3354 229.9328 204.3354 209.0452 196.7774 198.9704  C 189.2195 188.8955 174.1036 189.6334 164.3552 200.0772  C 154.6069 210.5209 150.2261 230.6706 157.784 240.7455  C 165.3419 250.8203 184.8387 250.8203 194.587 240.3766 "  class="cls-1265919216" >  </path>
<path id ="6bc924c2-41d0-4e59-a782-f79ba93f1189" d = " M 33.3469 241.7977  C 39.6013 232.775 36.0972 214.7296 28.0908 201.167  C 20.0843 187.6044 7.5755 178.5245 1.3211 187.5472  C -4.9333 196.5699 -4.9333 223.6951 3.0732 237.2577  C 11.0796 250.8203 27.0925 250.8203 33.3469 241.7977 "  class="cls-1265919216" >  </path>
<path id ="e1849589-2ecf-483e-a0a4-dbbabdeb8ff3" d = " M 193.9681 92.0744  C 183.6008 73.6768 162.8663 71.2091 150.0962 73.0176  C 137.326 74.8262 132.5203 80.9111 132.7762 97.5425  C 133.0321 114.174 138.3497 141.352 143.2378 157.0919  C 148.1258 172.8318 152.5844 177.1335 162.6958 178.8996  C 172.8071 180.6657 188.5713 179.8962 196.4533 162.3478  C 204.3354 144.7993 204.3354 110.4719 193.9681 92.0744 "  class="cls-1265919216" >  </path>
<path id ="02cfc348-08d8-4e4d-a8ec-7c53c0e95c97" d = " M 15.7489 99.5993  C -4.9333 110.9409 -4.9333 134.6197 2.1686 151.6142  C 9.2704 168.6087 23.474 178.9189 46.6707 180.4288  C 69.8674 181.9388 102.0571 174.6485 115.6374 158.1519  C 129.2178 141.6552 124.1888 115.9521 100.9921 102.6028  C 77.7954 89.2534 36.4311 88.2577 15.7489 99.5993 "  class="cls-1265919216" >  </path>
<path id ="6a22aeff-c6d2-423f-bc9d-8a63f8306d7a" d = " M 194.0505 8.5949  C 183.7656 -3.0983 163.1957 -3.0983 153.231 7.4089  C 143.2663 17.9161 143.9067 38.9306 154.1917 50.6237  C 164.4766 62.3169 184.406 64.6888 194.3707 54.1815  C 204.3354 43.6743 204.3354 20.288 194.0505 8.5949 "  class="cls-1265919216" >  </path>
<path id ="a70f7ef6-42ee-425d-ae22-3853041be836" d = " M 124.8541 240.2727  C 141.2007 229.7251 145.7871 208.6298 146.0405 196.1141  C 146.294 183.5985 142.2144 179.6624 124.1425 181.3253  C 106.0707 182.9882 74.0066 190.25 59.6998 202.7656  C 45.393 215.2813 48.8436 233.0508 64.6222 241.9356  C 80.4008 250.8203 108.5076 250.8203 124.8541 240.2727 "  class="cls-1265919216" >  </path>
</g>
<defs>
<style> .cls-1265919216{stroke:Black ; stroke-opacity:1; stroke-width:1; stroke-linecap:round; stroke-linejoin:round; fill:#000000 ; fill-opacity:1; } </style>
</defs>
</svg>