<?xml version="1.0" encoding="utf-8"?>
<svg xmlns="http://www.w3.org/2000/svg" xmlns:xlink="http://www.w3.org/1999/xlink"  x="-1.8881" y="0" width="205.6234mm" height="246.9757mm" viewBox = " -1.8881 0 205.6234 246.9757"  style="enable-background:new -1.8881 0 205.6234 246.9757; " preserveAspectRatio="xMinYMin meet"  xml:space="preserve" >
<g id="Default">
<path id ="2c51d6f3-8f6a-42ab-8efd-c090b91face6" d = " M 200.7509 101.4125  C 197.1665 84.8402 189.9977 82.6716 175.4772 87.9825  C 160.9568 93.2934 139.0848 106.0839 128.9693 121.6786  C 118.8538 137.2733 120.4949 155.6721 127.1457 168.5773  C 133.7966 181.4826 145.4571 188.8942 159.157 189.8718  C 172.8569 190.8494 188.5961 185.3929 196.4658 167.1767  C 204.3354 148.9606 204.3354 117.9847 200.7509 101.4125 "  class="cls-1265919216" >  </path>
<path id ="b1589cae-0e4f-4d82-876c-7db624a9e343" d = " M 10.2035 4.8526  C -4.9333 12.8034 -4.9333 28.7052 2.7286 38.0988  C 10.3904 47.4925 25.7141 50.3781 40.8509 42.4272  C 55.9878 34.4764 70.9377 15.689 63.2758 6.2954  C 55.614 -3.0983 25.3404 -3.0983 10.2035 4.8526 "  class="cls-1265919216" >  </path>
<path id ="3694d423-1240-4afc-95c9-90bc60dc399a" d = " M 38.3983 244.7586  C 47.1138 238.6969 47.2368 226.5734 41.4158 213.6145  C 35.5948 200.6557 23.8298 186.8614 15.1143 179.6644  C 6.3988 172.4674 0.7327 171.8675 -2.1003 184.8264  C -4.9333 197.7853 -4.9333 224.3028 3.7208 237.5616  C 12.3748 250.8203 29.6828 250.8203 38.3983 244.7586 "  class="cls-1265919216" >  </path>
<path id ="8529bdfb-c0f0-4be7-9f38-0a642528c89d" d = " M 193.6062 10.3489  C 182.8771 -3.0983 161.4188 -3.0983 158.2321 9.3849  C 155.0454 21.8681 170.1303 46.8345 180.8595 60.2817  C 191.5886 73.7289 197.962 75.657 201.1487 63.1738  C 204.3354 50.6906 204.3354 23.7961 193.6062 10.3489 "  class="cls-1265919216" >  </path>
<path id ="da72ef3b-b5b4-4bce-9ce9-ca84581ae77e" d = " M 2.5266 73.259  C -4.9333 89.9228 -4.9333 126.06 -2.0858 144.43  C 0.7616 162.8 6.4565 163.4029 16.902 152.7919  C 27.3475 142.1809 42.5436 120.356 47.1561 103.3907  C 51.7685 86.4255 45.7973 74.3199 35.3518 66.8623  C 24.9063 59.4047 9.9865 56.5952 2.5266 73.259 "  class="cls-1265919216" >  </path>
<path id ="526ce9bc-f5e4-44da-be56-bd26f5dac912" d = " M 195.566 240.5975  C 204.3354 230.3747 204.3354 209.929 197.0262 202.2401  C 189.7171 194.5512 175.0989 199.619 166.3295 209.8419  C 157.5601 220.0647 154.6396 235.4425 161.9487 243.1314  C 169.2578 250.8203 186.7966 250.8203 195.566 240.5975 "  class="cls-1265919216" >  </path>
<path id ="db30e09f-49a3-4e8d-a5bc-d6f4bd8b3274" d = " M 94.5445 7.2129  C 81.005 17.5241 64.5948 38.1466 59.3915 54.5434  C 54.1882 70.9403 60.1918 83.1116 70.8271 91.896  C 81.4624 100.6804 96.7293 106.078 115.0342 102.5363  C 133.3391 98.9946 154.6819 86.5135 157.5861 67.4179  C 160.4904 48.3222 144.956 22.612 131.8544 9.7568  C 118.7528 -3.0983 108.084 -3.0983 94.5445 7.2129 "  class="cls-1265919216" >  </path>
<path id ="adfb574c-dc19-4234-a4ff-2e9441113fa2" d = " M 64.508 117.5817  C 49.8059 125.7118 34.9122 147.1022 32.9519 164.2303  C 30.9917 181.3584 41.9647 194.2241 57.4761 195.1664  C 72.9874 196.1088 93.0371 185.1278 102.2527 170.5648  C 111.4683 156.0018 109.8499 137.8569 101.7853 126.2193  C 93.7208 114.5817 79.2101 109.4515 64.508 117.5817 "  class="cls-1265919216" >  </path>
<path id ="b30b4b9a-7bfe-472d-ad3c-cbc3ab7c01c0" d = " M 129.6162 242.9245  C 145.5367 235.0287 148.5358 219.2371 144.3913 207.7538  C 140.2468 196.2706 128.9587 189.0957 113.0979 191.1038  C 97.237 193.112 76.8034 204.3032 66.5269 215.7865  C 56.2504 227.2698 56.131 239.0451 70.4923 244.9327  C 84.8536 250.8203 113.6956 250.8203 129.6162 242.9245 "  class="cls-1265919216" >  </path>
</g>
<defs>
<style> .cls-1265919216{stroke:Black ; stroke-opacity:1; stroke-width:1; stroke-linecap:round; stroke-linejoin:round; fill:#000000 ; fill-opacity:1; } </style>
</defs>
</svg>