<?xml version="1.0" encoding="utf-8"?>
<svg xmlns="http://www.w3.org/2000/svg" xmlns:xlink="http://www.w3.org/1999/xlink"  x="-1.8881" y="0" width="205.6234mm" height="246.9757mm" viewBox = " -1.8881 0 205.6234 246.9757"  style="enable-background:new -1.8881 0 205.6234 246.9757; " preserveAspectRatio="xMinYMin meet"  xml:space="preserve" >
<g id="Default">
<path id ="4e99c189-3b4d-4e83-a68a-6f866c899a04" d = " M 190.6308 5.8699  C 176.9263 -3.0983 149.5172 -3.0983 145.4423 6.8232  C 141.3674 16.7448 160.6268 36.5878 174.3313 45.5561  C 188.0359 54.5243 196.1856 52.6177 200.2605 42.6962  C 204.3354 32.7746 204.3354 14.8382 190.6308 5.8699 "  class="cls-1265919216" >  </path>
<path id ="f4d067da-bffb-4c5e-8538-0f02fbbf361e" d = " M 35.972 244.6028  C 43.2275 238.3853 40.9137 225.9504 32.5012 218.099  C 24.0888 210.2477 9.5778 206.9801 2.3222 213.1976  C -4.9333 219.4151 -4.9333 235.1177 3.4792 242.969  C 11.8916 250.8203 28.7165 250.8203 35.972 244.6028 "  class="cls-1265919216" >  </path>
<path id ="bbf14147-42c8-41e3-8684-22d75b9d96b3" d = " M 195.5446 241.4764  C 204.3354 232.1325 204.3354 213.4446 198.5988 204.2364  C 192.8622 195.0282 181.3891 195.2995 172.5983 204.6435  C 163.8075 213.9874 157.6991 232.4039 163.4357 241.6121  C 169.1723 250.8203 186.7538 250.8203 195.5446 241.4764 "  class="cls-1265919216" >  </path>
<path id ="468c6819-c09e-4077-8f85-6bebcec2f31a" d = " M 4.5646 15.0327  C -4.9333 33.1637 -4.9333 69.4257 4.1835 87.9569  C 13.3003 106.4881 31.5338 107.2885 42.9605 104.7158  C 54.3871 102.1432 59.0069 96.1975 59.388 77.6663  C 59.7691 59.1351 55.9114 28.0184 44.4848 12.4601  C 33.0581 -3.0983 14.0624 -3.0983 4.5646 15.0327 "  class="cls-1265919216" >  </path>
<path id ="05f2e974-cb03-49c6-95bf-08ae997c0312" d = " M 200.4252 81.8495  C 196.515 61.8044 188.6945 63.634 180.5447 69.4226  C 172.3948 75.2113 163.9155 84.9591 161.2872 104.5553  C 158.659 124.1515 161.8818 153.5961 164.0609 168.9085  C 166.2399 184.221 167.3752 185.4012 173.9137 185.8501  C 180.4521 186.299 192.3938 186.0165 198.3646 164.9154  C 204.3354 143.8143 204.3354 101.8946 200.4252 81.8495 "  class="cls-1265919216" >  </path>
<path id ="2d3adf5c-ef4f-4860-9163-e6232b786153" d = " M 130.7604 241.0672  C 148.5572 231.3141 155.027 211.8078 157.7871 201.5611  C 160.5472 191.3143 159.5975 190.327 144.2738 188.0019  C 128.9501 185.6768 99.2525 182.0139 80.6889 185.5875  C 62.1253 189.1612 54.6957 199.9715 52.2227 212.0497  C 49.7496 224.1279 52.233 237.4741 68.0365 244.1472  C 83.84 250.8203 112.9637 250.8203 130.7604 241.0672 "  class="cls-1265919216" >  </path>
<path id ="a0ce5df5-e4be-4455-8d0f-e359f489f5a8" d = " M 80.919 99.2993  C 65.9403 101.9757 61.3769 107.8488 61.4595 120.0718  C 61.542 132.2948 66.2707 150.8677 82.7493 161.895  C 99.228 172.9223 127.4566 176.404 140.071 164.4413  C 152.6854 152.4785 149.6856 125.0712 135.4887 111.1073  C 121.2918 97.1434 95.8978 96.623 80.919 99.2993 "  class="cls-1265919216" >  </path>
<path id ="6c51a06f-949a-46e5-85ad-257ef289b7d0" d = " M 3.948 128.3981  C -4.9333 141.2999 -4.9333 167.8831 2.6394 182.88  C 10.212 197.8768 25.3572 201.2873 36.5984 197.6546  C 47.8395 194.022 55.1766 183.3462 56.4852 168.7392  C 57.7939 154.1322 53.074 135.5939 41.8329 125.935  C 30.5917 116.276 12.8292 115.4963 3.948 128.3981 "  class="cls-1265919216" >  </path>
<path id ="9e21e629-fa22-4fdf-976f-6f3e772dd3e1" d = " M 111.9332 7.6799  C 93.4062 -3.0983 77.2746 -3.0983 71.0729 11.9377  C 64.8712 26.9737 68.5993 57.0458 83.1956 72.3427  C 97.7918 87.6397 123.2561 88.1616 139.919 83.9038  C 156.5819 79.646 164.4433 70.6085 157.9129 55.3115  C 151.3824 40.0146 130.4601 18.4581 111.9332 7.6799 "  class="cls-1265919216" >  </path>
</g>
<defs>
<style> .cls-1265919216{stroke:Black ; stroke-opacity:1; stroke-width:1; stroke-linecap:round; stroke-linejoin:round; fill:#000000 ; fill-opacity:1; } </style>
</defs>
</svg>