<?xml version="1.0" encoding="utf-8"?>
<svg xmlns="http://www.w3.org/2000/svg" xmlns:xlink="http://www.w3.org/1999/xlink"  x="-1.8881" y="0" width="205.6234mm" height="246.9757mm" viewBox = " -1.8881 0 205.6234 246.9757"  style="enable-background:new -1.8881 0 205.6234 246.9757; " preserveAspectRatio="xMinYMin meet"  xml:space="preserve" >
<g id="Default">
<path id ="06fa5051-fe63-4e66-8218-f2bd849c08b1" d = " M 14.8615 125.8992  C -4.9333 134.2001 -4.9333 158.1977 11.8114 180.007  C 28.556 201.8164 62.0452 221.4374 84.5036 221.7356  C 106.962 222.0338 118.3895 203.0091 121.4396 184.8976  C 124.4897 166.7862 119.1624 149.588 96.7041 137.291  C 74.2457 124.994 34.6562 117.5982 14.8615 125.8992 "  class="cls-1265919216" >  </path>
<path id ="abb99369-fc61-4148-b9a8-ea91cdb89999" d = " M 192.7693 8.5382  C 181.2033 -3.0983 158.0712 -3.0983 152.0704 7.8426  C 146.0696 18.7835 157.2001 40.6653 168.7661 52.3017  C 180.3322 63.9382 192.3338 65.3293 198.3346 54.3884  C 204.3354 43.4475 204.3354 20.1746 192.7693 8.5382 "  class="cls-1265919216" >  </path>
<path id ="688337e9-c393-42f1-8a5d-3fe85371e191" d = " M 26.0062 -3.0983  C 5.3799 -3.0983 -4.9333 10.941 -4.9333 39.0195  C -4.9333 67.098 5.3799 67.098 26.0062 39.0195  C 46.6325 10.941 46.6325 -3.0983 26.0062 -3.0983 "  class="cls-1265919216" >  </path>
<path id ="fa2841ee-eced-40bf-9621-5a481dd38256" d = " M 198.1807 94.6026  C 192.026 74.3742 179.7167 72.9474 166.0513 81.8757  C 152.3859 90.8039 137.3644 110.0872 132.5005 128.2736  C 127.6365 146.46 132.9302 163.5496 146.5956 174.1364  C 160.261 184.7232 182.2982 188.8072 193.3168 171.3342  C 204.3354 153.8611 204.3354 114.831 198.1807 94.6026 "  class="cls-1265919216" >  </path>
<path id ="71160662-d6e0-4f7e-9378-618b2685cbc4" d = " M 65.4063 13.4803  C 43.7809 30.059 19.4238 63.2162 7.2453 80.5703  C -4.9333 97.9244 -4.9333 99.4753 15.1335 103.9995  C 35.2003 108.5236 75.3339 116.0211 102.8375 110.2231  C 130.341 104.4251 145.2146 85.3317 146.7732 64.2289  C 148.3318 43.1261 136.5754 20.0139 121.2504 8.4578  C 105.9254 -3.0983 87.0317 -3.0983 65.4063 13.4803 "  class="cls-1265919216" >  </path>
<path id ="0b389cbb-dfa2-46f7-883e-1737e9f7ef04" d = " M 187.2424 242.6944  C 204.3354 234.5686 204.3354 218.3168 193.109 208.1104  C 181.8826 197.904 159.4298 193.7429 142.3188 201.4593  C 125.2078 209.1757 113.4384 228.7695 107.5718 238.9759  C 101.7052 249.1823 101.7413 250.0013 118.8523 250.4108  C 135.9634 250.8203 170.1494 250.8203 187.2424 242.6944 "  class="cls-1265919216" >  </path>
<path id ="f32b70d1-0a04-4805-a4d9-ab7d296e3346" d = " M 76.4611 250.6596  C 92.7343 250.4988 92.7201 250.1772 76.4398 240.4821  C 60.1595 230.787 27.6131 211.7183 11.3399 211.8791  C -4.9333 212.0399 -4.9333 231.4301 11.347 241.1252  C 27.6273 250.8203 60.1879 250.8203 76.4611 250.6596 "  class="cls-1265919216" >  </path>
</g>
<defs>
<style> .cls-1265919216{stroke:Black ; stroke-opacity:1; stroke-width:1; stroke-linecap:round; stroke-linejoin:round; fill:#000000 ; fill-opacity:1; } </style>
</defs>
</svg>