<?xml version="1.0" encoding="utf-8"?>
<svg xmlns="http://www.w3.org/2000/svg" xmlns:xlink="http://www.w3.org/1999/xlink"  x="-1.8881" y="0" width="205.6234mm" height="246.9757mm" viewBox = " -1.8881 0 205.6234 246.9757"  style="enable-background:new -1.8881 0 205.6234 246.9757; " preserveAspectRatio="xMinYMin meet"  xml:space="preserve" >
<g id="Default">
<path id ="222170de-8411-49e7-b9d6-5ca44003a5b3" d = " M 197.0291 237.5821  C 204.3354 224.3439 204.3354 197.8675 196.0723 185.4551  C 187.8093 173.0428 171.2833 174.6945 159.741 179.5265  C 148.1987 184.3585 141.6401 192.3707 142.5969 204.7831  C 143.5536 217.1954 152.0256 234.0079 163.5679 242.4141  C 175.1102 250.8203 189.7228 250.8203 197.0291 237.5821 "  class="cls-1265919216" >  </path>
<path id ="c5eb926f-bfb7-4641-b28e-cff929c502c8" d = " M 9.516 4.9119  C -4.9333 12.9221 -4.9333 28.9425 3.9579 37.669  C 12.8491 46.3954 30.6315 47.828 45.0808 39.8178  C 59.53 31.8076 70.6461 14.3547 61.7549 5.6282  C 52.8637 -3.0983 23.9652 -3.0983 9.516 4.9119 "  class="cls-1265919216" >  </path>
<path id ="6672c31b-fc32-443c-8ab4-be9256b0ee36" d = " M 5.7204 202.7954  C 16.374 211.7438 37.6812 203.8524 45.7451 193.5031  C 53.8089 183.1538 48.6293 170.3465 37.9757 161.3981  C 27.3221 152.4497 11.1944 147.36 3.1306 157.7093  C -4.9333 168.0587 -4.9333 193.8469 5.7204 202.7954 "  class="cls-1265919216" >  </path>
<path id ="d2b4c3ae-87e5-417e-a3a8-de78e38c17bc" d = " M 195.1868 11.6086  C 186.0381 -3.0983 167.7409 -3.0983 158.819 10.2473  C 149.8971 23.593 150.3506 50.2842 159.4992 64.9912  C 168.6478 79.6981 186.4916 82.4207 195.4135 69.075  C 204.3354 55.7294 204.3354 26.3156 195.1868 11.6086 "  class="cls-1265919216" >  </path>
<path id ="c6125816-84a1-415c-bb84-9d2497dc37d8" d = " M 85.1738 111.0442  C 72.3039 120.083 62.0802 137.1751 59.6789 152.4235  C 57.2776 167.6718 62.6987 181.0763 75.3261 187.9079  C 87.9535 194.7394 107.7873 194.998 121.0188 191.078  C 134.2503 187.158 140.8795 179.0594 141.122 163.1891  C 141.3645 147.3188 135.2202 123.6768 124.39 112.3484  C 113.5598 101.0201 98.0437 102.0054 85.1738 111.0442 "  class="cls-1265919216" >  </path>
<path id ="72fdaa3e-3822-4069-a9b9-675510d9e8e8" d = " M 132.6242 243.0617  C 142.5776 235.3031 134.7582 219.7859 121.3014 211.9028  C 107.8446 204.0197 88.7503 203.7708 78.7969 211.5294  C 68.8435 219.288 68.0311 235.0542 81.4879 242.9373  C 94.9447 250.8203 122.6708 250.8203 132.6242 243.0617 "  class="cls-1265919216" >  </path>
<path id ="68c54fa1-def4-4304-889f-a50ab41d3f4d" d = " M 3.9206 67.8588  C -4.9333 80.2788 -4.9333 106.5452 3.3544 122.2939  C 11.6421 138.0426 28.2175 143.2735 41.466 137.5954  C 54.7145 131.9172 64.6362 115.33 65.2023 100.2946  C 65.7685 85.2591 56.9791 71.7756 43.7306 64.3205  C 30.4821 56.8654 12.7744 55.4388 3.9206 67.8588 "  class="cls-1265919216" >  </path>
<path id ="876826a0-4a5f-4be7-9263-7f1ed0fb3818" d = " M 94.3955 6.4091  C 80.3458 15.9164 68.235 34.9312 66.5282 51.1096  C 64.8213 67.288 73.5184 80.6301 85.9088 86.7905  C 98.2992 92.9508 114.3828 91.9295 124.3166 89.4471  C 134.2504 86.9647 138.0343 83.0213 139.6936 67.3536  C 141.3529 51.6859 140.8876 24.2938 132.6606 10.5978  C 124.4337 -3.0983 108.4452 -3.0983 94.3955 6.4091 "  class="cls-1265919216" >  </path>
<path id ="59ea4d0b-299f-4f3d-95d2-0a1c433aaf07" d = " M 194.945 104.1781  C 185.5545 91.4023 166.7737 88.5367 155.6351 88.9258  C 144.4965 89.3149 141.0001 92.9586 142.3086 106.5421  C 143.6172 120.1257 149.7306 143.6491 160.8692 154.603  C 172.0078 165.557 188.1716 163.9414 196.2535 151.7906  C 204.3354 139.6399 204.3354 116.9539 194.945 104.1781 "  class="cls-1265919216" >  </path>
<path id ="6a622857-f369-490e-8570-de7051813978" d = " M 48.06 243.184  C 58.9735 235.5477 59.7605 220.2752 49.2405 216.6808  C 38.7206 213.0864 16.8937 221.1703 5.9802 228.8066  C -4.9333 236.4429 -4.9333 243.6316 5.5867 247.226  C 16.1066 250.8203 37.1465 250.8203 48.06 243.184 "  class="cls-1265919216" >  </path>
</g>
<defs>
<style> .cls-1265919216{stroke:Black ; stroke-opacity:1; stroke-width:1; stroke-linecap:round; stroke-linejoin:round; fill:#000000 ; fill-opacity:1; } </style>
</defs>
</svg>